<?xml version="1.0" encoding="utf-8"?>
<!-- Generator: Adobe Illustrator 19.0.0, SVG Export Plug-In . SVG Version: 6.00 Build 0)  -->
<svg version="1.1" id="Ebene_2" xmlns="http://www.w3.org/2000/svg" xmlns:xlink="http://www.w3.org/1999/xlink" x="0px" y="0px"
	 viewBox="-57 58 85 85" style="enable-background:new -57 58 85 85;" xml:space="preserve">
<path class="icon" d="M21.2,115.7h-6.3V77.3l9.4-9.4c1-1,1-2.6,0-3.6l-3.6-3.6c-1-1-2.6-1-3.6,0l-9.4,9.4h-33.3v15.2h18.2l-23.2,23.2V63.8
	c0-2.1-1.7-3.8-3.8-3.8h-7.6c-2.1,0-3.8,1.7-3.8,3.8v6.3h-6.3c-2.1,0-3.8,1.7-3.8,3.8v7.6c0,2.1,1.7,3.8,3.8,3.8h6.3v41.8
	c0,2.1,1.7,3.8,3.8,3.8h36.7v-15.2h-18.2l23.2-23.2v44.7c0,2.1,1.7,3.8,3.8,3.8h7.6c2.1,0,3.8-1.7,3.8-3.8v-6.3h6.3
	c2.1,0,3.8-1.7,3.8-3.8v-7.6C25,117.4,23.3,115.7,21.2,115.7z"/>
</svg>
