<?xml version="1.0" encoding="utf-8"?>
<!-- Generator: Adobe Illustrator 18.0.0, SVG Export Plug-In . SVG Version: 6.00 Build 0)  -->
<!DOCTYPE svg PUBLIC "-//W3C//DTD SVG 1.1//EN" "http://www.w3.org/Graphics/SVG/1.1/DTD/svg11.dtd">
<svg version="1.1" id="Ebene_1" xmlns="http://www.w3.org/2000/svg" xmlns:xlink="http://www.w3.org/1999/xlink" x="0px" y="0px"
	 viewBox="0 0 200 200" enable-background="new 0 0 200 200" xml:space="preserve">
<path class="icon" d="M75,79.2v75.1c0,1.2-0.4,2.2-1.2,3c-0.8,0.8-1.8,1.2-3,1.2h-8.3c-1.2,0-2.2-0.4-3-1.2s-1.2-1.8-1.2-3V79.2
	c0-1.2,0.4-2.2,1.2-3s1.8-1.2,3-1.2h8.3c1.2,0,2.2,0.4,3,1.2C74.6,76.9,75,77.9,75,79.2z M108.3,79.2v75.1c0,1.2-0.4,2.2-1.2,3
	c-0.8,0.8-1.8,1.2-3,1.2h-8.3c-1.2,0-2.2-0.4-3-1.2s-1.2-1.8-1.2-3V79.2c0-1.2,0.4-2.2,1.2-3c0.8-0.8,1.8-1.2,3-1.2h8.3
	c1.2,0,2.2,0.4,3,1.2C107.9,76.9,108.3,77.9,108.3,79.2z M141.7,79.2v75.1c0,1.2-0.4,2.2-1.2,3s-1.8,1.2-3,1.2h-8.3
	c-1.2,0-2.2-0.4-3-1.2s-1.2-1.8-1.2-3V79.2c0-1.2,0.4-2.2,1.2-3c0.8-0.8,1.8-1.2,3-1.2h8.3c1.2,0,2.2,0.4,3,1.2
	C141.3,76.9,141.7,77.9,141.7,79.2z M158.4,173.5V50H41.6v123.5c0,1.9,0.3,3.7,0.9,5.3c0.6,1.6,1.2,2.8,1.9,3.5s1.1,1.1,1.4,1.1
	h108.4c0.3,0,0.7-0.4,1.4-1.1s1.3-1.9,1.9-3.5C158.1,177.2,158.4,175.4,158.4,173.5z M70.8,33.3h58.4L122.9,18
	c-0.6-0.8-1.3-1.3-2.2-1.4H79.4c-0.9,0.2-1.6,0.7-2.2,1.4L70.8,33.3z M191.7,37.5v8.3c0,1.2-0.4,2.2-1.2,3s-1.8,1.2-3,1.2H175v123.5
	c0,7.2-2,13.4-6.1,18.7s-9,7.9-14.7,7.9H45.8c-5.7,0-10.6-2.5-14.7-7.6S25,181.3,25,174.1V50H12.4c-1.2,0-2.2-0.4-3-1.2
	s-1.2-1.8-1.2-3v-8.3c0-1.2,0.4-2.2,1.2-3s1.8-1.2,3-1.2h40.3l9.1-21.8c1.3-3.2,3.6-6,7-8.2c3.4-2.3,6.8-3.4,10.3-3.4h41.7
	c3.5,0,6.9,1.1,10.3,3.4c3.4,2.3,5.7,5,7,8.2l9.1,21.8h40.3c1.2,0,2.2,0.4,3,1.2C191.3,35.2,191.7,36.2,191.7,37.5z"/>
</svg>
