<?xml version="1.0" encoding="utf-8"?>
<!-- Generator: Adobe Illustrator 18.0.0, SVG Export Plug-In . SVG Version: 6.00 Build 0)  -->
<!DOCTYPE svg PUBLIC "-//W3C//DTD SVG 1.1//EN" "http://www.w3.org/Graphics/SVG/1.1/DTD/svg11.dtd">
<svg version="1.1" id="Ebene_1" xmlns="http://www.w3.org/2000/svg" xmlns:xlink="http://www.w3.org/1999/xlink" x="0px" y="0px"
	 viewBox="0 0 200 200" enable-background="new 0 0 200 200" xml:space="preserve">
<path class="icon" d="M47.9,183.1l12-12l-31-31l-12,12v14.1h16.9v16.9H47.9z M117,60.6c0-1.9-1-2.9-2.9-2.9
	c-0.9,0-1.6,0.3-2.2,0.9l-71.6,71.6c-0.6,0.6-0.9,1.4-0.9,2.2c0,1.9,1,2.9,2.9,2.9c0.9,0,1.6-0.3,2.2-0.9L116,62.8
	C116.7,62.2,117,61.5,117,60.6z M109.8,35.2l54.9,54.9L54.9,200H0v-54.9L109.8,35.2z M200,47.9c0,4.7-1.6,8.6-4.9,11.9l-21.9,21.9
	l-54.9-54.9L140.2,5c3.2-3.3,7.1-5,11.9-5c4.7,0,8.7,1.7,12,5l31,30.9C198.4,39.3,200,43.3,200,47.9z"/>
</svg>
