<?xml version="1.0" encoding="utf-8"?>
<!-- Generator: Adobe Illustrator 18.0.0, SVG Export Plug-In . SVG Version: 6.00 Build 0)  -->
<!DOCTYPE svg PUBLIC "-//W3C//DTD SVG 1.1//EN" "http://www.w3.org/Graphics/SVG/1.1/DTD/svg11.dtd">
<svg version="1.1" id="Ebene_1" xmlns="http://www.w3.org/2000/svg" xmlns:xlink="http://www.w3.org/1999/xlink" x="0px" y="0px"
   viewBox="-85 -86 200 200" enable-background="new -85 -86 200 200" xml:space="preserve">
<path class="icon" d="M115.2,26.8c0,2.2-1.1,4.5-3.3,7L76.1,76c-3.1,3.6-7.3,6.7-12.8,9.2C57.8,87.8,52.7,89,48,89H-68
  c-2.4,0-4.6-0.5-6.4-1.4c-1.9-0.9-2.8-2.5-2.8-4.6c0-2.2,1.1-4.5,3.3-7l35.8-42.2c3.1-3.6,7.3-6.7,12.8-9.2
  c5.5-2.5,10.6-3.8,15.3-3.8h115.9c2.4,0,4.6,0.5,6.4,1.4C114.3,23.1,115.2,24.7,115.2,26.8z M78.7-9.9v17H-10
  c-6.7,0-13.7,1.7-21,5.1c-7.3,3.4-13.1,7.6-17.5,12.7l-36.4,42.8c0-0.3,0-0.7-0.1-1.3c0-0.6-0.1-1-0.1-1.3V-37.1
  c0-6.5,2.3-12.1,7-16.8s10.3-7,16.8-7H-27c6.5,0,12.1,2.3,16.8,7c4.7,4.7,7,10.3,7,16.8v3.4h58c6.5,0,12.1,2.3,16.8,7
  C76.3-22,78.7-16.4,78.7-9.9z"/>
</svg>
