<?xml version="1.0" encoding="utf-8"?>
<!-- Generator: Adobe Illustrator 18.0.0, SVG Export Plug-In . SVG Version: 6.00 Build 0)  -->
<!DOCTYPE svg PUBLIC "-//W3C//DTD SVG 1.1//EN" "http://www.w3.org/Graphics/SVG/1.1/DTD/svg11.dtd">
<svg version="1.1" id="Ebene_1" xmlns="http://www.w3.org/2000/svg" xmlns:xlink="http://www.w3.org/1999/xlink" x="0px" y="0px"
	 viewBox="0 0 200 200" enable-background="new 0 0 200 200" xml:space="preserve">
<path class="icon" d="M157.9,107.2v11.3c0,1.5-0.6,2.8-1.7,4c-1.1,1.1-2.4,1.7-4,1.7H5.6c-1.5,0-2.8-0.6-4-1.7
	c-1.1-1.1-1.7-2.4-1.7-4v-11.3c0-1.5,0.6-2.8,1.7-4c1.1-1.1,2.4-1.7,4-1.7h146.7c1.5,0,2.8,0.6,4,1.7
	C157.4,104.3,157.9,105.6,157.9,107.2z M157.9,73.3v11.3c0,1.5-0.6,2.8-1.7,4s-2.4,1.7-4,1.7H5.6c-1.5,0-2.8-0.6-4-1.7
	S0,86.1,0,84.6V73.3c0-1.5,0.6-2.8,1.7-4s2.4-1.7,4-1.7h146.7c1.5,0,2.8,0.6,4,1.7S157.9,71.8,157.9,73.3z M157.9,39.5v11.3
	c0,1.5-0.6,2.8-1.7,4s-2.4,1.7-4,1.7H5.6c-1.5,0-2.8-0.6-4-1.7S0,52.3,0,50.8V39.5c0-1.5,0.6-2.8,1.7-4s2.4-1.7,4-1.7h146.7
	c1.5,0,2.8,0.6,4,1.7S157.9,38,157.9,39.5z M157.9,5.6v11.3c0,1.5-0.6,2.8-1.7,4c-1.1,1.1-2.4,1.7-4,1.7H5.6c-1.5,0-2.8-0.6-4-1.7
	c-1.1-1.1-1.7-2.4-1.7-4V5.6c0-1.5,0.6-2.8,1.7-4S4.1,0,5.6,0h146.7c1.5,0,2.8,0.6,4,1.7S157.9,4.1,157.9,5.6z"/>
</svg>
