<?xml version="1.0" encoding="utf-8"?>
<!-- Generator: Adobe Illustrator 19.0.0, SVG Export Plug-In . SVG Version: 6.00 Build 0)  -->
<svg version="1.1" id="Ebene_1" xmlns="http://www.w3.org/2000/svg" xmlns:xlink="http://www.w3.org/1999/xlink" x="0px" y="0px"
	 viewBox="-49 -50 200 200" style="enable-background:new -49 -50 200 200;" xml:space="preserve">
<g>
	<path class="icon" d="M13.7,38.3c3.9,0,7.2-1.7,9.9-5.1s4.1-7.5,4.1-12.4c0-4.9-1.4-9-4.1-12.4s-6-5.1-9.9-5.1C9.8,3.3,6.5,5,3.8,8.4
		S-0.3,16-0.3,20.8c0,4.9,1.4,9,4.1,12.4S9.8,38.3,13.7,38.3z"/>
	<path class="icon" d="M146.1-43.9c-3.3-4.1-7.2-6.1-11.8-6.1H-32.3c-4.6,0-8.5,2-11.8,6.1c-3.3,4.1-4.9,9-4.9,14.7v158.3
		c0,5.7,1.6,10.6,4.9,14.7c3.3,4.1,7.2,6.1,11.8,6.1h166.7c4.6,0,8.5-2,11.8-6.1s4.9-9,4.9-14.7V-29.2
		C151-34.9,149.4-39.8,146.1-43.9z M138.3,119.1c0,5-1.4,9.3-4.3,12.8c-2.9,3.6-6.3,5.3-10.3,5.3H-21.8c-4,0-7.4-1.8-10.3-5.3
		c-2.9-3.6-4.3-7.8-4.3-12.8V-19.1c0-5,1.4-9.3,4.3-12.8c2.9-3.6,6.3-5.3,10.3-5.3h145.6c4,0,7.4,1.8,10.3,5.3
		c2.9,3.6,4.3,7.8,4.3,12.8V119.1z"/>
	<path class="icon" d="M109.3-20H-7.3c-3.2,0-6,1.4-8.2,4.3S-19-9.4-19-5.4v110.8c0,4,1.1,7.4,3.4,10.3c2.3,2.9,5,4.3,8.2,4.3h116.7
		c3.2,0,6-1.4,8.2-4.3c2.3-2.9,3.4-6.3,3.4-10.3V-5.4c0-4-1.1-7.4-3.4-10.3S112.5-20,109.3-20z M111.7,105.4c0,0.8-0.2,1.5-0.7,2.1
		c-0.5,0.6-1,0.9-1.6,0.9H-7.3c-0.6,0-1.2-0.3-1.6-0.9c-0.5-0.6-0.7-1.3-0.7-2.1V-5.4c0-0.8,0.2-1.5,0.7-2.1C-8.5-8-8-8.3-7.3-8.3
		h116.7c0.6,0,1.2,0.3,1.6,0.9c0.5,0.6,0.7,1.3,0.7,2.1V105.4z"/>
	<polygon class="icon" points="34.7,64.6 23,50 -0.3,79.2 -0.3,96.7 102.3,96.7 102.3,55.8 72,17.9 	"/>
</g>
</svg>
