<?xml version="1.0" encoding="utf-8"?>
<!-- Generator: Adobe Illustrator 19.0.1, SVG Export Plug-In . SVG Version: 6.00 Build 0)  -->
<!DOCTYPE svg PUBLIC "-//W3C//DTD SVG 1.1//EN" "http://www.w3.org/Graphics/SVG/1.1/DTD/svg11.dtd">
<svg version="1.1" id="Ebene_1" xmlns="http://www.w3.org/2000/svg" xmlns:xlink="http://www.w3.org/1999/xlink" x="0px" y="0px"
   viewBox="0 0 200 200" style="enable-background:new 0 0 200 200;" xml:space="preserve">
<g>
  <path class="icon" d="M200,107.2v11.3c0,1.5-0.6,2.8-1.7,4c-1.1,1.1-2.4,1.7-4,1.7H47.7c-1.5,0-2.8-0.6-4-1.7c-1.1-1.1-1.7-2.4-1.7-4v-11.3
    c0-1.5,0.6-2.8,1.7-4c1.1-1.1,2.4-1.7,4-1.7h146.7c1.5,0,2.8,0.6,4,1.7C199.4,104.3,200,105.6,200,107.2z M200,73.3v11.3
    c0,1.5-0.6,2.8-1.7,4s-2.4,1.7-4,1.7H81.5c-1.5,0-2.8-0.6-4-1.7c-1.1-1.1-1.7-2.4-1.7-4V73.3c0-1.5,0.6-2.8,1.7-4
    c1.1-1.1,2.4-1.7,4-1.7h112.8c1.5,0,2.8,0.6,4,1.7S200,71.8,200,73.3z M200,39.5v11.3c0,1.5-0.6,2.8-1.7,4s-2.4,1.7-4,1.7H59
    c-1.5,0-2.8-0.6-4-1.7s-1.7-2.4-1.7-4V39.5c0-1.5,0.6-2.8,1.7-4s2.4-1.7,4-1.7h135.4c1.5,0,2.8,0.6,4,1.7S200,38,200,39.5z M200,5.6
    v11.3c0,1.5-0.6,2.8-1.7,4c-1.1,1.1-2.4,1.7-4,1.7H92.8c-1.5,0-2.8-0.6-4-1.7c-1.1-1.1-1.7-2.4-1.7-4V5.6c0-1.5,0.6-2.8,1.7-4
    s2.4-1.7,4-1.7h101.5c1.5,0,2.8,0.6,4,1.7S200,4.1,200,5.6z"/>
  <path class="icon" d="M78.4,98h1.9c0.7-0.2,1.4-0.6,2-1.2l2.8-2.8h-3.7c-2.6,0-4.9-0.9-6.7-2.7c-1.9-1.9-2.8-4.1-2.8-6.7V73.3
    c0-2.6,0.9-4.8,2.8-6.6c1.9-1.9,4.2-2.7,6.7-2.7H85l-4-4H59c-2.6,0-5.1-0.8-7-2.6c-1.9-1.9-3-4-3-6.6V39.5c0-2.6,1.2-4.9,3-6.7
    c1.3-1.3,2.9-2.1,4.6-2.5l16.1-16.1c1.6-1.6,2.5-3.6,2.5-5.8c0-2.2-0.8-4.2-2.5-5.8C71.1,0.8,69.2,0,66.9,0H8.7
    c-2.3,0-4.4,0.8-6,2.5C1,4.1,0,6.1,0,8.3v58.2c0,2.3,1,4.2,2.7,5.8c1.6,1.6,3.7,2.5,5.9,2.5c2.2,0,4.2-0.8,5.9-2.5l18.7-18.7
    l43.2,43.1C77,97.4,77.7,97.8,78.4,98z"/>
  <path class="icon" d="M194.4,128h-9.3l-18,18l-18-18h-41.6l38.8,38.8l-18.7,18.7c-1.6,1.6-2.5,3.6-2.5,5.8s0.8,4.4,2.5,6
    c1.6,1.6,3.6,2.7,5.8,2.7h58.2c2.3,0,4.2-1,5.8-2.7c1.6-1.6,2.5-3.8,2.5-6v-58.2c0-2.2-0.8-4.1-2.3-5.7
    C196.6,127.8,195.5,128,194.4,128z"/>
  <path class="icon" d="M198.3,1.6c-1.2-1.1-2.5-1.7-4-1.7H92.8c-1.6,0-2.9,0.5-4,1.7c-1.1,1.2-1.7,2.5-1.7,4v11.3
    c0,1.6,0.6,2.9,1.7,4c1.2,1.1,2.5,1.7,4,1.7h101.5c1.6,0,2.9-0.6,4-1.7c1.1-1.2,1.7-2.5,1.7-4V5.6C200,4.1,199.5,2.7,198.3,1.6z"/>
  <path class="icon" d="M194.4,101.5H47.7c-1.6,0-2.9,0.6-4,1.7c-1.1,1.2-1.7,2.5-1.7,4v11.3c0,1.6,0.6,2.9,1.7,4
    c1.2,1.1,2.5,1.7,4,1.7h146.6c1.6,0,2.9-0.6,4-1.7c1.1-1.2,1.7-2.5,1.7-4v-11.3c0-1.6-0.6-2.9-1.6-4
    C197.2,102.1,195.9,101.5,194.4,101.5z"/>
  <path class="icon" d="M194.3,67.6H81.5c-1.6,0-2.9,0.6-4,1.7c-1.1,1.2-1.7,2.5-1.7,4v11.3c0,1.6,0.6,2.9,1.7,4
    c1.2,1.1,2.5,1.7,4,1.7h112.8c1.6,0,2.9-0.5,4-1.7c1.1-1.2,1.7-2.5,1.7-4V73.3c0-1.5-0.5-2.9-1.7-4
    C197.1,68.2,195.8,67.6,194.3,67.6z"/>
  <path class="icon" d="M194.4,33.8H59c-1.6,0-2.9,0.5-4,1.7s-1.7,2.5-1.7,4v11.3c0,1.6,0.5,2.9,1.7,4c1.2,1.1,2.5,1.7,4,1.7h135.3
    c1.6,0,2.9-0.5,4-1.7c1.1-1.2,1.7-2.5,1.7-4V39.5c0-1.5-0.4-2.9-1.6-4C197.2,34.4,195.9,33.8,194.4,33.8z"/>
</g>
</svg>
