<?xml version="1.0" encoding="utf-8"?>
<!-- Generator: Adobe Illustrator 19.0.1, SVG Export Plug-In . SVG Version: 6.00 Build 0)  -->
<!DOCTYPE svg PUBLIC "-//W3C//DTD SVG 1.1//EN" "http://www.w3.org/Graphics/SVG/1.1/DTD/svg11.dtd">
<svg version="1.1" id="Ebene_1" xmlns="http://www.w3.org/2000/svg" xmlns:xlink="http://www.w3.org/1999/xlink" x="0px" y="0px"
   viewBox="0 0 200 200" style="enable-background:new 0 0 200 200;" xml:space="preserve">
<g>
  <path class="icon" d="M157.9,107.9v11.3c0,1.5-0.6,2.8-1.7,4c-1.1,1.1-2.4,1.7-4,1.7H5.6c-1.5,0-2.8-0.6-4-1.7c-1.1-1.1-1.7-2.4-1.7-4v-11.3
    c0-1.5,0.6-2.8,1.7-4c1.1-1.1,2.4-1.7,4-1.7h146.7c1.5,0,2.8,0.6,4,1.7C157.4,105,157.9,106.4,157.9,107.9z M124.1,74v11.3
    c0,1.5-0.6,2.8-1.7,4c-1.1,1.1-2.4,1.7-4,1.7H5.6c-1.5,0-2.8-0.6-4-1.7c-1.1-1.1-1.7-2.4-1.7-4V74c0-1.5,0.6-2.8,1.7-4
    c1.1-1.1,2.4-1.7,4-1.7h112.8c1.5,0,2.8,0.6,4,1.7C123.5,71.2,124.1,72.5,124.1,74z M146.7,40.2v11.3c0,1.5-0.6,2.8-1.7,4
    c-1.1,1.1-2.4,1.7-4,1.7H5.6c-1.5,0-2.8-0.6-4-1.7c-1-1.2-1.6-2.5-1.6-4V40.2c0-1.5,0.6-2.8,1.7-4s2.4-1.7,4-1.7H141
    c1.5,0,2.8,0.6,4,1.7S146.7,38.7,146.7,40.2z M112.8,6.3v11.3c0,1.5-0.6,2.8-1.7,4c-1.1,1.1-2.4,1.7-4,1.7H5.6c-1.5,0-2.8-0.6-4-1.7
    S0,19.2,0,17.6V6.3c0-1.5,0.6-2.8,1.7-4s2.4-1.7,4-1.7h101.5c1.5,0,2.8,0.6,4,1.7C112.3,3.5,112.8,4.8,112.8,6.3z"/>
  <path class="icon" d="M50.2,129l-17.4,17.4L15.4,129H5.6c-1.3,0-2.5-0.3-3.6-0.8c-1.3,1.5-2,3.3-2,5.3v58.1c0,2.2,0.8,4.2,2.5,5.8
    c1.6,1.6,3.6,2.5,5.8,2.5h58.1c2.2,0,4.2-0.8,5.8-2.5c1.6-1.6,2.5-3.6,2.5-5.8c0-2.2-0.8-4.2-2.5-5.8l-18.6-18.6L91.8,129H50.2z"/>
  <path class="icon" d="M196.7,3.3C195,1.7,193.2,1,191,1h-58.1c-2.2,0-4.2,0.7-5.8,2.3c-1.6,1.6-2.5,3.5-2.5,5.8
    c0,2.3,0.8,4.2,2.5,5.8l16.4,16.4c1.7,0.4,3.3,1.1,4.6,2.4c1.9,1.9,3,4,3,6.6v11.3c0,2.6-1.2,4.9-3,6.7c-1.9,1.9-4.4,2.8-7,2.8
    h-22.8l-3,3h3.2c2.6,0,4.9,1.2,6.7,3c1.9,1.9,2.8,4.4,2.8,7v11.3c0,2.6-0.9,5-2.8,6.8c-1.9,1.9-4.2,2.9-6.7,2.9h-3.4l2.4,2.4
    c0.2,0.2,0.5,0.5,0.8,0.6h4.4c0.3-0.2,0.5-0.4,0.8-0.6l43.1-43.1L185.2,73c1.6,1.6,3.6,2.5,5.8,2.5s4-0.8,5.7-2.5
    c1.6-1.6,2.3-3.6,2.3-5.8V9C199,6.8,198.3,5,196.7,3.3z"/>
  <path class="icon" d="M152.3,102.2H5.6c-1.6,0-2.9,0.6-4,1.7c-1.1,1.2-1.7,2.5-1.7,4v11.3c0,1.6,0.6,2.9,1.7,4
    c1.2,1.1,2.5,1.7,4,1.7h146.6c1.6,0,2.9-0.6,4-1.7c1.1-1.2,1.7-2.5,1.7-4v-11.3c0-1.5-0.5-2.9-1.6-4
    C155.1,102.8,153.8,102.2,152.3,102.2z"/>
  <path class="icon" d="M5.6,57.2H141c1.6,0,2.9-0.6,4-1.7c1.1-1.2,1.7-2.5,1.7-4V40.2c0-1.5-0.5-2.9-1.7-4c-1.2-1.1-2.5-1.7-4-1.7
    H5.7c-1.6,0-2.9,0.5-4,1.7c-1.1,1.2-1.7,2.5-1.7,4v11.3c0,1.5,0.6,2.8,1.6,4C2.8,56.6,4.1,57.2,5.6,57.2z"/>
  <path class="icon" d="M5.6,23.3h101.5c1.6,0,2.9-0.6,4-1.7c1.1-1.2,1.7-2.5,1.7-4V6.3c0-1.5-0.5-2.8-1.6-4c-1.2-1.1-2.5-1.7-4-1.7
    H5.7c-1.6,0-2.9,0.5-4,1.7C0.6,3.5,0,4.8,0,6.3v11.3c0,1.6,0.4,2.9,1.6,4C2.8,22.7,4.1,23.3,5.6,23.3z"/>
  <path class="icon" d="M5.6,91h112.8c1.6,0,2.9-0.6,4-1.7c1.1-1.2,1.7-2.5,1.7-4V74c0-1.5-0.6-2.8-1.7-4c-1.2-1.1-2.5-1.7-4-1.7H5.6
    c-1.6,0-2.9,0.6-4,1.7c-1.1,1.2-1.7,2.5-1.7,4v11.3c0,1.6,0.6,2.9,1.7,4C2.8,90.4,4.1,91,5.6,91z"/>
</g>
</svg>
