<?xml version="1.0" encoding="utf-8"?>
<!-- Generator: Adobe Illustrator 18.0.0, SVG Export Plug-In . SVG Version: 6.00 Build 0)  -->
<!DOCTYPE svg PUBLIC "-//W3C//DTD SVG 1.1//EN" "http://www.w3.org/Graphics/SVG/1.1/DTD/svg11.dtd">
<svg version="1.1" id="Ebene_1" xmlns="http://www.w3.org/2000/svg" xmlns:xlink="http://www.w3.org/1999/xlink" x="0px" y="0px"
	 viewBox="-89 -87 200 200" enable-background="new -89 -87 200 200" xml:space="preserve">
<path fill="#7D8491" d="M69.7,22.8v21.6c0,3-1.1,5.6-3.2,7.7c-2.1,2.1-4.7,3.2-7.7,3.2H12v46.9c0,3-1.1,5.6-3.2,7.7
	c-2.1,2.1-4.7,3.2-7.7,3.2h-21.6c-3,0-5.6-1.1-7.7-3.2c-2.1-2.1-3.2-4.7-3.2-7.7V55.3h-46.9c-3,0-5.6-1.1-7.7-3.2
	c-2.1-2.1-3.2-4.7-3.2-7.7V22.8c0-3,1.1-5.6,3.2-7.7c2.1-2.1,4.7-3.2,7.7-3.2h46.9v-46.9c0-3,1.1-5.6,3.2-7.7
	c2.1-2.1,4.7-3.2,7.7-3.2H1.2c3,0,5.6,1.1,7.7,3.2c2.1,2.1,3.2,4.7,3.2,7.7V12h46.9c3,0,5.6,1.1,7.7,3.2
	C68.6,17.3,69.7,19.8,69.7,22.8z"/>
<g>
	<path fill="#7D8491" d="M16,59.3v11.2c1.5,0.7,3.1,1.1,4.9,1.1h21.6c3,0,5.6-1.1,7.7-3.2c2.1-2.1,3.2-4.7,3.2-7.7v-1.5H16z"/>
	<path fill="#7D8491" d="M-35.3,8v-37.3h-1.5c-3,0-5.6,1.1-7.7,3.2s-3.2,4.7-3.2,7.7V3.2c0,1.8,0.4,3.4,1.1,4.9H-35.3z"/>
	<path fill="#7D8491" d="M107.8-26.1c-2.1-2.1-4.7-3.2-7.7-3.2H53.3v-46.9c0-3-1.1-5.6-3.2-7.7C48-85.9,45.5-87,42.5-87H20.8
		c-3,0-5.6,1.1-7.7,3.2S10-79.2,10-76.2v29.5c0.6,0.4,1.1,0.9,1.6,1.4c2.9,2.9,4.3,6.4,4.3,10.5V8h42.9c4.1,0,7.6,1.5,10.5,4.3
		c0.5,0.5,1,1.1,1.4,1.6h29.5c3,0,5.6-1.1,7.7-3.2c2.1-2.1,3.2-4.7,3.2-7.7v-21.6C111-21.5,109.9-24,107.8-26.1z"/>
</g>
</svg>
