<?xml version="1.0" encoding="utf-8"?>
<!-- Generator: Adobe Illustrator 18.0.0, SVG Export Plug-In . SVG Version: 6.00 Build 0)  -->
<!DOCTYPE svg PUBLIC "-//W3C//DTD SVG 1.1//EN" "http://www.w3.org/Graphics/SVG/1.1/DTD/svg11.dtd">
<svg version="1.1" id="Ebene_1" xmlns="http://www.w3.org/2000/svg" xmlns:xlink="http://www.w3.org/1999/xlink" x="0px" y="0px"
	 viewBox="0 0 200 200" enable-background="new 0 0 200 200" xml:space="preserve">
<path d="M57.2,144.7v21.4c0,3-1,5.5-3.1,7.6c-2.1,2.1-4.6,3.1-7.6,3.1H10.9c-3,0-5.5-1-7.6-3.1c-2.1-2.1-3.1-4.6-3.1-7.6v-21.4
	c0-3,1-5.5,3.1-7.6S8,134,10.9,134h35.6c3,0,5.5,1,7.6,3.1S57.2,141.7,57.2,144.7z M57.2,87.7v21.4c0,3-1,5.5-3.1,7.6
	c-2.1,2.1-4.6,3.1-7.6,3.1H10.9c-3,0-5.5-1-7.6-3.1c-2.1-2.1-3.1-4.6-3.1-7.6V87.7c0-3,1-5.5,3.1-7.6C5.4,78,8,77,10.9,77h35.6
	c3,0,5.5,1,7.6,3.1C56.2,82.2,57.2,84.7,57.2,87.7z M128.5,144.7v21.4c0,3-1,5.5-3.1,7.6c-2.1,2.1-4.6,3.1-7.6,3.1H82.2
	c-3,0-5.5-1-7.6-3.1c-2.1-2.1-3.1-4.6-3.1-7.6v-21.4c0-3,1-5.5,3.1-7.6c2.1-2.1,4.6-3.1,7.6-3.1h35.6c3,0,5.5,1,7.6,3.1
	C127.5,139.2,128.5,141.7,128.5,144.7z M57.2,30.7v21.4c0,3-1,5.5-3.1,7.6s-4.6,3.1-7.6,3.1H10.9c-3,0-5.5-1-7.6-3.1
	S0.2,55,0.2,52.1V30.7c0-3,1-5.5,3.1-7.6S8,20,10.9,20h35.6c3,0,5.5,1,7.6,3.1S57.2,27.7,57.2,30.7z M128.5,87.7v21.4
	c0,3-1,5.5-3.1,7.6c-2.1,2.1-4.6,3.1-7.6,3.1H82.2c-3,0-5.5-1-7.6-3.1c-2.1-2.1-3.1-4.6-3.1-7.6V87.7c0-3,1-5.5,3.1-7.6
	c2.1-2.1,4.6-3.1,7.6-3.1h35.6c3,0,5.5,1,7.6,3.1C127.5,82.2,128.5,84.7,128.5,87.7z M199.8,144.7v21.4c0,3-1,5.5-3.1,7.6
	c-2.1,2.1-4.6,3.1-7.6,3.1h-35.6c-3,0-5.5-1-7.6-3.1c-2.1-2.1-3.1-4.6-3.1-7.6v-21.4c0-3,1-5.5,3.1-7.6c2.1-2.1,4.6-3.1,7.6-3.1
	h35.6c3,0,5.5,1,7.6,3.1S199.8,141.7,199.8,144.7z M128.5,30.7v21.4c0,3-1,5.5-3.1,7.6c-2.1,2.1-4.6,3.1-7.6,3.1H82.2
	c-3,0-5.5-1-7.6-3.1c-2.1-2.1-3.1-4.6-3.1-7.6V30.7c0-3,1-5.5,3.1-7.6c2.1-2.1,4.6-3.1,7.6-3.1h35.6c3,0,5.5,1,7.6,3.1
	C127.5,25.2,128.5,27.7,128.5,30.7z M199.8,87.7v21.4c0,3-1,5.5-3.1,7.6c-2.1,2.1-4.6,3.1-7.6,3.1h-35.6c-3,0-5.5-1-7.6-3.1
	c-2.1-2.1-3.1-4.6-3.1-7.6V87.7c0-3,1-5.5,3.1-7.6c2.1-2.1,4.6-3.1,7.6-3.1h35.6c3,0,5.5,1,7.6,3.1
	C198.7,82.2,199.8,84.7,199.8,87.7z M199.8,30.7v21.4c0,3-1,5.5-3.1,7.6s-4.6,3.1-7.6,3.1h-35.6c-3,0-5.5-1-7.6-3.1
	c-2.1-2.1-3.1-4.6-3.1-7.6V30.7c0-3,1-5.5,3.1-7.6c2.1-2.1,4.6-3.1,7.6-3.1h35.6c3,0,5.5,1,7.6,3.1S199.8,27.7,199.8,30.7z"/>
</svg>
