<?xml version="1.0" encoding="utf-8"?>
<!-- Generator: Adobe Illustrator 18.0.0, SVG Export Plug-In . SVG Version: 6.00 Build 0)  -->
<!DOCTYPE svg PUBLIC "-//W3C//DTD SVG 1.1//EN" "http://www.w3.org/Graphics/SVG/1.1/DTD/svg11.dtd">
<svg version="1.1" id="Ebene_1" xmlns="http://www.w3.org/2000/svg" xmlns:xlink="http://www.w3.org/1999/xlink" x="0px" y="0px"
	 viewBox="0 0 200 200" enable-background="new 0 0 200 200" xml:space="preserve">
<path class="icon" d="M199.8,99.8c0,1.9-0.7,3.6-2.1,5l-28.5,28.5c-1.4,1.4-3.1,2.1-5,2.1s-3.6-0.7-5-2.1c-1.4-1.4-2.1-3.1-2.1-5
	v-14.3h-42.8v42.8h14.3c1.9,0,3.6,0.7,5,2.1s2.1,3.1,2.1,5s-0.7,3.6-2.1,5L105,197.5c-1.4,1.4-3.1,2.1-5,2.1s-3.6-0.7-5-2.1
	L66.5,169c-1.4-1.4-2.1-3.1-2.1-5s0.7-3.6,2.1-5c1.4-1.4,3.1-2.1,5-2.1h14.3v-42.8H43v14.3c0,1.9-0.7,3.6-2.1,5
	c-1.4,1.4-3.1,2.1-5,2.1c-1.9,0-3.6-0.7-5-2.1L2.3,104.8c-1.4-1.4-2.1-3.1-2.1-5s0.7-3.6,2.1-5l28.5-28.5c1.4-1.4,3.1-2.1,5-2.1
	c1.9,0,3.6,0.7,5,2.1c1.4,1.4,2.1,3.1,2.1,5v14.3h42.8V42.8H71.5c-1.9,0-3.6-0.7-5-2.1c-1.4-1.4-2.1-3.1-2.1-5s0.7-3.6,2.1-5L95,2.1
	c1.4-1.4,3.1-2.1,5-2.1s3.6,0.7,5,2.1l28.5,28.5c1.4,1.4,2.1,3.1,2.1,5s-0.7,3.6-2.1,5c-1.4,1.4-3.1,2.1-5,2.1h-14.3v42.8H157V71.3
	c0-1.9,0.7-3.6,2.1-5c1.4-1.4,3.1-2.1,5-2.1s3.6,0.7,5,2.1l28.5,28.5C199.1,96.2,199.8,97.9,199.8,99.8z"/>
</svg>
