<?xml version="1.0" encoding="utf-8"?>
<!-- Generator: Adobe Illustrator 19.0.1, SVG Export Plug-In . SVG Version: 6.00 Build 0)  -->
<!DOCTYPE svg PUBLIC "-//W3C//DTD SVG 1.1//EN" "http://www.w3.org/Graphics/SVG/1.1/DTD/svg11.dtd">
<svg version="1.1" id="Ebene_1" xmlns="http://www.w3.org/2000/svg" xmlns:xlink="http://www.w3.org/1999/xlink" x="0px" y="0px"
	 viewBox="0 0 200 200" style="enable-background:new 0 0 200 200;" xml:space="preserve">
<g>
	<path class="icon" d="M148,99h-46.9V52c0-3-1.1-5.6-3.2-7.7c-2.1-2.1-4.7-3.2-7.7-3.2H68.5c-3,0-5.6,1.1-7.7,3.2
		c-2.1,2.1-3.2,4.7-3.2,7.7v46.9H10.8c-3,0-5.6,1.1-7.7,3.2c-2.1,2.1-3.2,4.7-3.2,7.7v21.6c0,3,1.1,5.6,3.2,7.7
		c2.1,2.1,4.7,3.2,7.7,3.2h46.9v46.9c0,3,1.1,5.6,3.2,7.7c2.1,2.1,4.7,3.2,7.7,3.2h21.6c3,0,5.6-1.1,7.7-3.2
		c2.1-2.1,3.2-4.7,3.2-7.7v-46.9h46.8c3,0,5.6-1.1,7.7-3.2c2.1-2.1,3.2-4.7,3.2-7.7v-21.6c0-3-1.1-5.5-3-7.6
		C153.7,100,151,99,148,99z"/>
	<path class="icon" d="M105,146.2v11.2c1.5,0.7,3.1,1.1,4.9,1.1h21.6c3,0,5.6-1.1,7.7-3.2c2.1-2.1,3.2-4.7,3.2-7.7v-1.5L105,146.2
		L105,146.2z"/>
	<path class="icon" d="M53.8,95L53.8,95V57.7h-1.5c-3,0-5.6,1.1-7.7,3.2c-2.1,2.1-3.2,4.7-3.2,7.7v21.6c0,1.8,0.4,3.4,1.1,4.9H53.8z"
		/>
	<path class="icon" d="M196.9,60.8c-2.1-2.1-4.7-3.2-7.7-3.2h-46.8V10.8c0-3-1.1-5.6-3.2-7.7C137,1,134.5,0,131.5,0h-21.7
		c-3,0-5.6,1.1-7.7,3.2C100,5.2,99,7.8,99,10.8v29.5c0.6,0.4,1.1,0.9,1.6,1.4c2.9,2.9,4.3,6.4,4.3,10.5V95h42.9
		c4.1,0,7.6,1.5,10.5,4.3c0.5,0.5,1,1.1,1.4,1.6h29.5c3,0,5.6-1.1,7.7-3.2c2.1-2.1,3.2-4.7,3.2-7.7V68.3C200,65.5,199,63,196.9,60.8
		z"/>
</g>
</svg>
