<?xml version="1.0" encoding="iso-8859-1"?>
<!-- Generator: Adobe Illustrator 19.1.0, SVG Export Plug-In . SVG Version: 6.00 Build 0)  -->
<svg version="1.1" id="Capa_1" xmlns="http://www.w3.org/2000/svg" xmlns:xlink="http://www.w3.org/1999/xlink" x="0px" y="0px"
	 viewBox="0 0 323.212 323.212" style="enable-background:new 0 0 323.212 323.212;" xml:space="preserve">
<g>
	<path class="icon" d="M286.305,12.192C278.445,4.332,267.995,0,256.883,0c-11.112,0-21.562,4.325-29.428,12.185L187.21,52.43l-5.206-5.199
		c-9.293-9.3-25.527-9.319-34.872,0c-9.589,9.615-9.589,25.245,0.006,34.853l5.321,5.321l-88.498,88.504v-0.006l-11.498,42.893
		l-3.612,13.471l-22.41,22.417c-2.262,2.262-2.269,5.938,0,8.207l13.342,13.336c1.138,1.138,2.622,1.71,4.113,1.71
		s2.969-0.566,4.107-1.697l22.417-22.417l13.458-3.605l42.906-11.498l-0.013-0.013l88.491-88.498l4.415,4.415
		c4.659,4.647,10.848,7.204,17.43,7.204c6.581,0,12.764-2.558,17.423-7.211c4.659-4.659,7.224-10.848,7.224-17.43
		c0-6.587-2.564-12.777-7.224-17.43l-8.464-8.464l40.251-40.251C302.52,54.814,302.52,28.413,286.305,12.192z M193.206,154.09
		L67.973,210.595l7.513-28.015l85.753-85.747l29.821,29.184l15.116,15.116L193.206,154.09z M277.218,61.955l-43.645,43.606
		c-0.353,0.27-0.694,0.533-1.028,0.835l-5.019,4.531l17.912,17.918c2.23,2.23,3.458,5.193,3.458,8.342
		c0,3.149-1.228,6.112-3.458,8.342c-4.447,4.447-12.23,4.435-16.684,0l-4.409-4.409l0.264-0.264l-24.57-24.043l-43.805-43.805
		c-4.595-4.602-4.595-12.089-0.006-16.684c2.23-2.23,5.199-3.458,8.348-3.458c3.156,0,6.118,1.221,8.342,3.451l14.666,14.666
		l4.531-5.058c0.289-0.321,0.553-0.662,0.816-1.048l43.606-43.612c5.444-5.418,12.667-8.413,20.347-8.413
		c7.68,0,14.904,2.988,20.335,8.426C288.42,32.488,288.42,50.74,277.218,61.955z M51.295,312.351l0.058,0.116h-0.064
		c-0.09,5.951-4.923,10.746-10.881,10.746c-5.977,0-10.804-4.794-10.881-10.746h-0.077l0.064-0.116c0,0-0.006-0.013-0.006-0.026
		c0-3.843,8.143-20.032,10.9-19.981c2.757,0.051,10.893,16.144,10.893,19.981C51.302,312.338,51.295,312.351,51.295,312.351z"/>
</g>
</svg>
