<?xml version="1.0" encoding="utf-8"?>
<!-- Generator: Adobe Illustrator 18.0.0, SVG Export Plug-In . SVG Version: 6.00 Build 0)  -->
<!DOCTYPE svg PUBLIC "-//W3C//DTD SVG 1.1//EN" "http://www.w3.org/Graphics/SVG/1.1/DTD/svg11.dtd">
<svg version="1.1" id="Ebene_1" xmlns="http://www.w3.org/2000/svg" xmlns:xlink="http://www.w3.org/1999/xlink" x="0px" y="0px"
	 viewBox="0 0 200 200" enable-background="new 0 0 200 200" xml:space="preserve">
<path d="M199.8,158.2v16.6c0,2.3-0.8,4.2-2.5,5.8s-3.6,2.5-5.8,2.5H8.5c-2.3,0-4.2-0.8-5.8-2.5s-2.5-3.6-2.5-5.8v-16.6
	c0-2.3,0.8-4.2,2.5-5.8s3.6-2.5,5.8-2.5h183c2.3,0,4.2,0.8,5.8,2.5S199.8,156,199.8,158.2z M199.8,91.7v16.6c0,2.3-0.8,4.2-2.5,5.8
	s-3.6,2.5-5.8,2.5H8.5c-2.3,0-4.2-0.8-5.8-2.5s-2.5-3.6-2.5-5.8V91.7c0-2.3,0.8-4.2,2.5-5.8c1.6-1.6,3.6-2.5,5.8-2.5h183
	c2.3,0,4.2,0.8,5.8,2.5C199,87.5,199.8,89.4,199.8,91.7z M199.8,25.1v16.6c0,2.3-0.8,4.2-2.5,5.8c-1.6,1.6-3.6,2.5-5.8,2.5H8.5
	c-2.3,0-4.2-0.8-5.8-2.5C1,46,0.2,44,0.2,41.8V25.1c0-2.3,0.8-4.2,2.5-5.8c1.6-1.6,3.6-2.5,5.8-2.5h183c2.3,0,4.2,0.8,5.8,2.5
	C199,20.9,199.8,22.9,199.8,25.1z"/>
</svg>
